<svg width="375" height="375" viewBox="0 0 375 375" fill="none" xmlns="http://www.w3.org/2000/svg">
<rect width="375" height="375" fill="#FF5527"/>
<path d="M264.818 184.723C245.258 184.723 226.495 177.015 212.641 163.287C198.787 149.559 190.972 130.932 190.908 111.486C190.927 111.413 190.927 111.337 190.908 111.264C190.908 110.904 190.837 110.548 190.698 110.215C190.56 109.883 190.357 109.581 190.101 109.326C189.845 109.072 189.541 108.87 189.207 108.732C188.872 108.595 188.514 108.524 188.152 108.524C187.419 108.524 186.716 108.812 186.197 109.325C185.677 109.839 185.382 110.535 185.377 111.264C185.377 130.716 177.619 149.375 163.802 163.149C149.986 176.922 131.239 184.688 111.672 184.742H111.467C110.727 184.742 110.016 185.034 109.492 185.555C108.968 186.076 108.674 186.782 108.674 187.519C108.674 188.255 108.968 188.961 109.492 189.482C110.016 190.003 110.727 190.295 111.467 190.295C131.057 190.295 149.845 198.027 163.703 211.79C177.562 225.554 185.358 244.225 185.377 263.699C185.377 264.436 185.672 265.142 186.195 265.663C186.719 266.184 187.43 266.476 188.171 266.476C188.911 266.476 189.622 266.184 190.146 265.663C190.67 265.142 190.964 264.436 190.964 263.699V263.422C191.009 249.607 194.974 236.085 202.401 224.409C209.829 212.733 220.418 203.376 232.954 197.414C245.489 191.451 259.462 189.125 273.268 190.702C287.073 192.279 300.151 197.694 311 206.328C306.228 237.084 289.952 264.915 265.428 284.255C240.904 303.595 209.94 313.017 178.729 310.638C147.518 308.259 118.361 294.254 97.0891 271.423C75.8176 248.592 64 218.62 64 187.5C64 156.38 75.8176 126.408 97.0891 103.577C118.361 80.7462 147.518 66.7407 178.729 64.3616C209.94 61.9825 240.904 71.4053 265.428 90.7452C289.952 110.085 306.228 137.916 311 168.672C297.909 179.1 281.63 184.776 264.855 184.76" fill="white"/>
</svg>
