<svg xmlns="http://www.w3.org/2000/svg" width="132.489" height="13" viewBox="0 0 132.489 13">
  <g id="Group_25" data-name="Group 25" transform="translate(-3084.969 -17.056)">
    <g id="Group_24" data-name="Group 24">
      <path id="Path_165" data-name="Path 165" d="M3098.09,17.579a.343.343,0,0,1,.343-.343h7.475a.343.343,0,0,1,.343.343v1.969a.342.342,0,0,1-.343.342h-5v2.239h4.116a.356.356,0,0,1,.344.344V24.44a.344.344,0,0,1-.344.344h-4.116v2.437h5a.343.343,0,0,1,.343.343v1.968a.342.342,0,0,1-.343.343h-7.475a.343.343,0,0,1-.343-.343Z" fill="#fff"/>
      <path id="Path_166" data-name="Path 166" d="M3107.425,17.67a.315.315,0,0,1,.325-.434h2.112a.37.37,0,0,1,.325.253l1.553,6.121h.073l2.8-6.356a.344.344,0,0,1,.307-.2h.325a.307.307,0,0,1,.307.2l2.8,6.356h.072l1.553-6.121a.371.371,0,0,1,.325-.253h2.112a.315.315,0,0,1,.325.434L3119.324,29.8a.347.347,0,0,1-.325.253h-.289a.367.367,0,0,1-.307-.2l-3.3-7.384h-.055l-3.285,7.384a.37.37,0,0,1-.308.2h-.288a.345.345,0,0,1-.325-.253Z" fill="#fff"/>
      <path id="Path_167" data-name="Path 167" d="M3124.018,28.666a.408.408,0,0,1-.072-.542l.831-1.463a.425.425,0,0,1,.614-.108,4.625,4.625,0,0,0,2.564.993,1.131,1.131,0,0,0,1.246-1.083c0-.759-.669-1.246-1.86-1.824-1.752-.848-3.5-1.823-3.5-3.99,0-1.788,1.39-3.593,4.171-3.593a6.718,6.718,0,0,1,3.864,1.354.457.457,0,0,1,.108.578l-.921,1.39a.557.557,0,0,1-.794.126,4.936,4.936,0,0,0-2.438-.975.98.98,0,0,0-1.1.993c0,.6.7,1.066,1.968,1.68,1.589.776,3.647,1.661,3.647,4.116a3.967,3.967,0,0,1-4.261,3.738A5.738,5.738,0,0,1,3124.018,28.666Z" fill="#fff"/>
      <path id="Path_168" data-name="Path 168" d="M3135.845,17.345a.345.345,0,0,1,.325-.289h.289a.4.4,0,0,1,.307.18l4.189,7.8h.036l4.189-7.8a.4.4,0,0,1,.307-.18h.289a.345.345,0,0,1,.325.289l2.04,12.133a.331.331,0,0,1-.343.4h-2.13a.368.368,0,0,1-.344-.289l-.812-5.579h-.036l-3.034,5.85a.422.422,0,0,1-.307.2h-.325a.4.4,0,0,1-.307-.2l-3.051-5.85h-.036l-.794,5.579a.351.351,0,0,1-.343.289h-2.131a.331.331,0,0,1-.343-.4Z" fill="#fff"/>
      <path id="Path_169" data-name="Path 169" d="M3155.978,17.056a6.5,6.5,0,1,1-6.482,6.518A6.488,6.488,0,0,1,3155.978,17.056Zm0,10.111a3.611,3.611,0,1,0-3.593-3.593A3.618,3.618,0,0,0,3155.978,27.167Z" fill="#fff"/>
      <path id="Path_170" data-name="Path 170" d="M3164.591,17.381a.339.339,0,0,1,.343-.325h.27c.181,0,.307.126.452.271l6.933,6.662h.018v-6.41a.344.344,0,0,1,.344-.343h2.166a.355.355,0,0,1,.343.343V29.731a.317.317,0,0,1-.343.325h-.18a.577.577,0,0,1-.452-.2l-7.023-7.06h-.019v6.735a.342.342,0,0,1-.342.343h-2.149a.354.354,0,0,1-.343-.343Z" fill="#fff"/>
      <path id="Path_171" data-name="Path 171" d="M3178.313,17.579a.356.356,0,0,1,.343-.343h2.167a.355.355,0,0,1,.343.343V29.532a.354.354,0,0,1-.343.343h-2.167a.355.355,0,0,1-.343-.343Z" fill="#fff"/>
      <path id="Path_172" data-name="Path 172" d="M3185.987,19.89h-2.582a.343.343,0,0,1-.343-.342V17.579a.343.343,0,0,1,.343-.343h8.017a.343.343,0,0,1,.343.343v1.969a.342.342,0,0,1-.343.342h-2.582v9.642a.355.355,0,0,1-.343.343h-2.167a.355.355,0,0,1-.343-.343Z" fill="#fff"/>
      <path id="Path_173" data-name="Path 173" d="M3199.15,17.056a6.5,6.5,0,1,1-6.482,6.518A6.488,6.488,0,0,1,3199.15,17.056Zm0,10.111a3.611,3.611,0,1,0-3.593-3.593A3.618,3.618,0,0,0,3199.15,27.167Z" fill="#fff"/>
      <path id="Path_174" data-name="Path 174" d="M3207.781,17.579a.343.343,0,0,1,.343-.343h5.4a3.858,3.858,0,0,1,1.263,7.529l2.474,4.587a.341.341,0,0,1-.307.523h-2.4a.332.332,0,0,1-.289-.162l-2.4-4.785h-1.245v4.6a.355.355,0,0,1-.344.343h-2.148a.342.342,0,0,1-.343-.343Zm5.507,5.056a1.389,1.389,0,0,0,1.372-1.444,1.328,1.328,0,0,0-1.372-1.373h-2.672v2.817Z" fill="#fff"/>
    </g>
    <path id="Path_175" data-name="Path 175" d="M3095.5,17.232h-2.167a.343.343,0,0,0-.343.343v5.807h-.018l-2.566-3.064v2.408l-4.367-5.4c-.145-.144-.271-.27-.452-.27h-.271a.34.34,0,0,0-.343.325V29.532a.372.372,0,0,0,.361.343h2.149a.342.342,0,0,0,.343-.343V23.4h.018l2.565,3.177V24.167l4.459,5.685a.578.578,0,0,0,.452.2h.18a.317.317,0,0,0,.343-.325V17.575A.354.354,0,0,0,3095.5,17.232Z" fill="#fff"/>
  </g>
</svg>
