<svg id="Group_3919" data-name="Group 3919" xmlns="http://www.w3.org/2000/svg" xmlns:xlink="http://www.w3.org/1999/xlink" width="211" height="211" viewBox="0 0 211 211">
  <defs>
    <clipPath id="clip-path">
      <rect id="Rectangle_6672" data-name="Rectangle 6672" width="211" height="211" fill="none"/>
    </clipPath>
  </defs>
  <rect id="Rectangle_6671" data-name="Rectangle 6671" width="211" height="211" fill="#f50057"/>
  <g id="Group_3847" data-name="Group 3847">
    <g id="Group_3846" data-name="Group 3846" clip-path="url(#clip-path)">
      <g id="Group_3849" data-name="Group 3849" transform="translate(0.118 0.117)">
        <path id="Path_1845" data-name="Path 1845" d="M181.513,499.633h-8.646a.634.634,0,0,1-.634-.634v-8.646a.634.634,0,0,1,.634-.634h8.646a.634.634,0,0,1,.634.634V499a.634.634,0,0,1-.634.634" transform="translate(-136.744 -388.919)" fill="#f7f5f6"/>
        <path id="Path_1846" data-name="Path 1846" d="M273.928,491.3h-5.764a4.989,4.989,0,0,1-4.989-4.989v-5.764a4.989,4.989,0,0,1,4.989-4.989h5.764a4.989,4.989,0,0,1,4.989,4.989v5.764a4.989,4.989,0,0,1-4.989,4.989" transform="translate(-208.978 -377.668)" fill="#f7f5f6"/>
        <path id="Path_1847" data-name="Path 1847" d="M366.343,482.958h-2.882a9.344,9.344,0,0,1-9.344-9.344v-2.882a9.344,9.344,0,0,1,9.344-9.344h2.882a9.344,9.344,0,0,1,9.344,9.344v2.882a9.344,9.344,0,0,1-9.344,9.344" transform="translate(-281.212 -366.416)" fill="#f7f5f6"/>
        <path id="Path_1848" data-name="Path 1848" d="M458.757,474.621h0a13.7,13.7,0,1,1,13.7-13.7,13.7,13.7,0,0,1-13.7,13.7" transform="translate(-353.446 -355.165)" fill="#f7f5f6"/>
        <path id="Path_1849" data-name="Path 1849" d="M576.787,482.958h-2.882a9.344,9.344,0,0,1-9.344-9.344v-2.882a9.344,9.344,0,0,1,9.344-9.344h2.882a9.344,9.344,0,0,1,9.344,9.344v2.882a9.344,9.344,0,0,1-9.344,9.344" transform="translate(-448.366 -366.416)" fill="#f7f5f6"/>
        <path id="Path_1850" data-name="Path 1850" d="M694.817,491.3h-5.764a4.989,4.989,0,0,1-4.989-4.989v-5.764a4.989,4.989,0,0,1,4.989-4.989h5.764a4.989,4.989,0,0,1,4.989,4.989v5.764a4.989,4.989,0,0,1-4.989,4.989" transform="translate(-543.286 -377.668)" fill="#f7f5f6"/>
        <path id="Path_1851" data-name="Path 1851" d="M812.847,499.633H804.2a.634.634,0,0,1-.634-.634v-8.646a.634.634,0,0,1,.634-.634h8.646a.634.634,0,0,1,.634.634V499a.634.634,0,0,1-.634.634" transform="translate(-638.207 -388.919)" fill="#f7f5f6"/>
        <path id="Path_1852" data-name="Path 1852" d="M814.87,608.593h-6.748a.634.634,0,0,1-.634-.634V601.21a.634.634,0,0,1,.634-.634h6.748a.634.634,0,0,1,.634.634v6.749a.634.634,0,0,1-.634.634" transform="translate(-641.32 -476.972)" fill="#f7f5f6"/>
        <path id="Path_1853" data-name="Path 1853" d="M691.4,598.293v-5.46a3.537,3.537,0,0,1,3.537-3.537h5.46a3.538,3.538,0,0,1,3.538,3.537v5.46a3.538,3.538,0,0,1-3.538,3.537h-5.46a3.538,3.538,0,0,1-3.537-3.537" transform="translate(-549.113 -468.013)" fill="#f7f5f6"/>
        <path id="Path_1854" data-name="Path 1854" d="M575.312,588.628v-4.171a6.441,6.441,0,0,1,6.441-6.441h4.171a6.441,6.441,0,0,1,6.441,6.441v4.171a6.441,6.441,0,0,1-6.441,6.441h-4.171a6.441,6.441,0,0,1-6.441-6.441" transform="translate(-456.906 -459.053)" fill="#f7f5f6"/>
        <path id="Path_1855" data-name="Path 1855" d="M459.224,578.963v-2.882a9.344,9.344,0,0,1,9.344-9.344h2.882a9.344,9.344,0,0,1,9.344,9.344v2.882a9.344,9.344,0,0,1-9.344,9.344h-2.882a9.344,9.344,0,0,1-9.344-9.344" transform="translate(-364.698 -450.094)" fill="#f7f5f6"/>
        <path id="Path_1856" data-name="Path 1856" d="M365.1,588.628v-4.171a6.441,6.441,0,0,1,6.441-6.441h4.171a6.441,6.441,0,0,1,6.441,6.441v4.171a6.441,6.441,0,0,1-6.441,6.441h-4.171a6.441,6.441,0,0,1-6.441-6.441" transform="translate(-289.934 -459.053)" fill="#f7f5f6"/>
        <path id="Path_1857" data-name="Path 1857" d="M270.972,598.293v-5.46a3.537,3.537,0,0,1,3.537-3.537h5.46a3.538,3.538,0,0,1,3.538,3.537v5.46a3.538,3.538,0,0,1-3.538,3.537h-5.46a3.538,3.538,0,0,1-3.537-3.537" transform="translate(-215.171 -468.013)" fill="#f7f5f6"/>
        <path id="Path_1858" data-name="Path 1858" d="M184.229,608.593H177.48a.634.634,0,0,1-.634-.634V601.21a.634.634,0,0,1,.634-.634h6.749a.634.634,0,0,1,.634.634v6.749a.634.634,0,0,1-.634.634" transform="translate(-140.408 -476.972)" fill="#f7f5f6"/>
        <path id="Path_1859" data-name="Path 1859" d="M820.789,718.162h-2.854a.634.634,0,0,1-.634-.634v-2.854a.634.634,0,0,1,.634-.634h2.854a.634.634,0,0,1,.634.634v2.854a.634.634,0,0,1-.634.634" transform="translate(-649.116 -567.095)" fill="#f7f5f6"/>
        <path id="Path_1860" data-name="Path 1860" d="M702.779,710.719v-3.824a2.086,2.086,0,0,1,2.086-2.086h3.824a2.086,2.086,0,0,1,2.086,2.086v3.824a2.086,2.086,0,0,1-2.086,2.086h-3.824a2.086,2.086,0,0,1-2.086-2.086" transform="translate(-558.152 -559.764)" fill="#f7f5f6"/>
        <path id="Path_1861" data-name="Path 1861" d="M588.258,703.908v-4.794a3.537,3.537,0,0,1,3.537-3.537h4.794a3.537,3.537,0,0,1,3.538,3.537v4.794a3.538,3.538,0,0,1-3.538,3.537H591.8a3.537,3.537,0,0,1-3.537-3.537" transform="translate(-467.189 -552.43)" fill="#f7f5f6"/>
        <path id="Path_1862" data-name="Path 1862" d="M473.736,697.1v-5.764a4.989,4.989,0,0,1,4.989-4.989h5.764a4.989,4.989,0,0,1,4.989,4.989V697.1a4.989,4.989,0,0,1-4.989,4.989h-5.764a4.989,4.989,0,0,1-4.989-4.989" transform="translate(-376.225 -545.098)" fill="#f7f5f6"/>
        <path id="Path_1863" data-name="Path 1863" d="M378.044,703.908v-4.794a3.537,3.537,0,0,1,3.537-3.537h4.794a3.537,3.537,0,0,1,3.538,3.537v4.794a3.538,3.538,0,0,1-3.538,3.537h-4.794a3.537,3.537,0,0,1-3.537-3.537" transform="translate(-300.218 -552.43)" fill="#f7f5f6"/>
        <path id="Path_1864" data-name="Path 1864" d="M282.352,710.719v-3.824a2.086,2.086,0,0,1,2.086-2.086h3.824a2.086,2.086,0,0,1,2.086,2.086v3.824a2.086,2.086,0,0,1-2.086,2.086h-3.824a2.086,2.086,0,0,1-2.086-2.086" transform="translate(-224.21 -559.764)" fill="#f7f5f6"/>
        <path id="Path_1865" data-name="Path 1865" d="M190.148,718.162h-2.854a.634.634,0,0,1-.634-.634v-2.854a.634.634,0,0,1,.634-.634h2.854a.634.634,0,0,1,.634.634v2.854a.634.634,0,0,1-.634.634" transform="translate(-148.203 -567.095)" fill="#f7f5f6"/>
        <path id="Path_1866" data-name="Path 1866" d="M715.247,824.742h-2.854a.634.634,0,0,1-.634-.634v-2.854a.634.634,0,0,1,.634-.634h2.854a.634.634,0,0,1,.634.634v2.854a.634.634,0,0,1-.634.634" transform="translate(-565.284 -651.751)" fill="#f7f5f6"/>
        <path id="Path_1867" data-name="Path 1867" d="M599.83,819.386v-5.75a.634.634,0,0,1,.634-.634h5.75a.634.634,0,0,1,.634.634v5.75a.634.634,0,0,1-.634.634h-5.75a.634.634,0,0,1-.634-.634" transform="translate(-476.38 -645.7)" fill="#f7f5f6"/>
        <path id="Path_1868" data-name="Path 1868" d="M487.9,814.666v-8.646a.634.634,0,0,1,.634-.634h8.646a.634.634,0,0,1,.634.634v8.646a.634.634,0,0,1-.634.634h-8.646a.634.634,0,0,1-.634-.634" transform="translate(-387.477 -639.65)" fill="#f7f5f6"/>
        <path id="Path_1869" data-name="Path 1869" d="M389.777,818.764v-5.75a.634.634,0,0,1,.634-.634h5.75a.634.634,0,0,1,.634.634v5.75a.634.634,0,0,1-.634.634h-5.75a.634.634,0,0,1-.634-.634" transform="translate(-309.537 -645.206)" fill="#f7f5f6"/>
        <path id="Path_1870" data-name="Path 1870" d="M295.14,823.5h-2.854a.634.634,0,0,1-.634-.634V820.01a.634.634,0,0,1,.634-.634h2.854a.634.634,0,0,1,.634.634v2.854a.634.634,0,0,1-.634.634" transform="translate(-231.597 -650.763)" fill="#f7f5f6"/>
        <path id="Path_1871" data-name="Path 1871" d="M814.87,397.918h-6.748a.634.634,0,0,1-.634-.634v-6.748a.634.634,0,0,1,.634-.634h6.748a.634.634,0,0,1,.634.634v6.748a.634.634,0,0,1-.634.634" transform="translate(-641.32 -309.635)" fill="#f7f5f6"/>
        <path id="Path_1872" data-name="Path 1872" d="M691.4,387.618v-5.46a3.537,3.537,0,0,1,3.537-3.537h5.46a3.538,3.538,0,0,1,3.538,3.537v5.46a3.538,3.538,0,0,1-3.538,3.537h-5.46a3.537,3.537,0,0,1-3.537-3.537" transform="translate(-549.113 -300.675)" fill="#f7f5f6"/>
        <path id="Path_1873" data-name="Path 1873" d="M575.312,377.953v-4.171a6.441,6.441,0,0,1,6.441-6.441h4.171a6.441,6.441,0,0,1,6.441,6.441v4.171a6.441,6.441,0,0,1-6.441,6.441h-4.171a6.441,6.441,0,0,1-6.441-6.441" transform="translate(-456.906 -291.715)" fill="#f7f5f6"/>
        <path id="Path_1874" data-name="Path 1874" d="M459.224,368.287v-2.882a9.344,9.344,0,0,1,9.344-9.344h2.882a9.344,9.344,0,0,1,9.344,9.344v2.882a9.344,9.344,0,0,1-9.344,9.344h-2.882a9.344,9.344,0,0,1-9.344-9.344" transform="translate(-364.698 -282.756)" fill="#f7f5f6"/>
        <path id="Path_1875" data-name="Path 1875" d="M365.1,377.953v-4.171a6.441,6.441,0,0,1,6.441-6.441h4.171a6.441,6.441,0,0,1,6.441,6.441v4.171a6.441,6.441,0,0,1-6.441,6.441h-4.171a6.441,6.441,0,0,1-6.441-6.441" transform="translate(-289.934 -291.715)" fill="#f7f5f6"/>
        <path id="Path_1876" data-name="Path 1876" d="M270.972,387.618v-5.46a3.537,3.537,0,0,1,3.537-3.537h5.46a3.538,3.538,0,0,1,3.538,3.537v5.46a3.538,3.538,0,0,1-3.538,3.537h-5.46a3.537,3.537,0,0,1-3.537-3.537" transform="translate(-215.171 -300.675)" fill="#f7f5f6"/>
        <path id="Path_1877" data-name="Path 1877" d="M184.229,397.918H177.48a.634.634,0,0,1-.634-.634v-6.748a.634.634,0,0,1,.634-.634h6.749a.634.634,0,0,1,.634.634v6.748a.634.634,0,0,1-.634.634" transform="translate(-140.408 -309.635)" fill="#f7f5f6"/>
        <path id="Path_1878" data-name="Path 1878" d="M820.1,297.5h-2.854a.634.634,0,0,1-.634-.634v-2.854a.634.634,0,0,1,.634-.634H820.1a.634.634,0,0,1,.634.634v2.854a.634.634,0,0,1-.634.634" transform="translate(-648.565 -232.97)" fill="#f7f5f6"/>
        <path id="Path_1879" data-name="Path 1879" d="M702.086,290.06v-3.824a2.086,2.086,0,0,1,2.086-2.086H708a2.086,2.086,0,0,1,2.086,2.086v3.824A2.086,2.086,0,0,1,708,292.146h-3.824a2.086,2.086,0,0,1-2.086-2.086" transform="translate(-557.601 -225.637)" fill="#f7f5f6"/>
        <path id="Path_1880" data-name="Path 1880" d="M587.565,283.25v-4.794a3.537,3.537,0,0,1,3.537-3.537H595.9a3.537,3.537,0,0,1,3.537,3.537v4.794a3.537,3.537,0,0,1-3.537,3.537H591.1a3.537,3.537,0,0,1-3.537-3.537" transform="translate(-466.638 -218.305)" fill="#f7f5f6"/>
        <path id="Path_1881" data-name="Path 1881" d="M473.043,276.44v-5.764a4.989,4.989,0,0,1,4.989-4.989H483.8a4.989,4.989,0,0,1,4.989,4.989v5.764a4.989,4.989,0,0,1-4.989,4.989h-5.764a4.989,4.989,0,0,1-4.989-4.989" transform="translate(-375.674 -210.973)" fill="#f7f5f6"/>
        <path id="Path_1882" data-name="Path 1882" d="M377.351,283.25v-4.794a3.537,3.537,0,0,1,3.537-3.537h4.794a3.538,3.538,0,0,1,3.538,3.537v4.794a3.538,3.538,0,0,1-3.538,3.537h-4.794a3.537,3.537,0,0,1-3.537-3.537" transform="translate(-299.667 -218.305)" fill="#f7f5f6"/>
        <path id="Path_1883" data-name="Path 1883" d="M281.659,290.06v-3.824a2.086,2.086,0,0,1,2.086-2.086h3.824a2.086,2.086,0,0,1,2.086,2.086v3.824a2.086,2.086,0,0,1-2.086,2.086h-3.824a2.086,2.086,0,0,1-2.086-2.086" transform="translate(-223.66 -225.637)" fill="#f7f5f6"/>
        <path id="Path_1884" data-name="Path 1884" d="M189.455,297.5H186.6a.634.634,0,0,1-.634-.634v-2.854a.634.634,0,0,1,.634-.634h2.854a.634.634,0,0,1,.634.634v2.854a.634.634,0,0,1-.634.634" transform="translate(-147.652 -232.97)" fill="#f7f5f6"/>
        <path id="Path_1885" data-name="Path 1885" d="M715.247,194.1h-2.854a.634.634,0,0,1-.634-.634v-2.854a.634.634,0,0,1,.634-.634h2.854a.634.634,0,0,1,.634.634v2.854a.634.634,0,0,1-.634.634" transform="translate(-565.284 -150.839)" fill="#f7f5f6"/>
        <path id="Path_1886" data-name="Path 1886" d="M599.83,188.745V183a.634.634,0,0,1,.634-.634h5.75a.634.634,0,0,1,.634.634v5.75a.634.634,0,0,1-.634.634h-5.75a.634.634,0,0,1-.634-.634" transform="translate(-476.38 -144.787)" fill="#f7f5f6"/>
        <path id="Path_1887" data-name="Path 1887" d="M487.9,184.024v-8.646a.634.634,0,0,1,.634-.634h8.646a.634.634,0,0,1,.634.634v8.646a.634.634,0,0,1-.634.634h-8.646a.634.634,0,0,1-.634-.634" transform="translate(-387.477 -138.737)" fill="#f7f5f6"/>
        <path id="Path_1888" data-name="Path 1888" d="M389.777,188.123v-5.75a.634.634,0,0,1,.634-.634h5.75a.634.634,0,0,1,.634.634v5.75a.634.634,0,0,1-.634.634h-5.75a.634.634,0,0,1-.634-.634" transform="translate(-309.537 -144.293)" fill="#f7f5f6"/>
        <path id="Path_1889" data-name="Path 1889" d="M295.14,192.857h-2.854a.634.634,0,0,1-.634-.634v-2.854a.634.634,0,0,1,.634-.634h2.854a.634.634,0,0,1,.634.634v2.854a.634.634,0,0,1-.634.634" transform="translate(-231.597 -149.851)" fill="#f7f5f6"/>
      </g>
    </g>
  </g>
</svg>
