<svg xmlns="http://www.w3.org/2000/svg" xmlns:xlink="http://www.w3.org/1999/xlink" width="211" height="211" viewBox="0 0 211 211">
  <defs>
    <linearGradient id="linear-gradient" x1="0.935" y1="0.042" x2="0.055" y2="0.956" gradientUnits="objectBoundingBox">
      <stop offset="0" stop-color="#6f9"/>
      <stop offset="1" stop-color="#cf6"/>
    </linearGradient>
  </defs>
  <g id="Group_3918" data-name="Group 3918" transform="translate(7253 18883)">
    <rect id="Rectangle_1668" data-name="Rectangle 1668" width="211" height="211" transform="translate(-7253 -18883)" fill="#370466"/>
    <path id="Path_1440" data-name="Path 1440" d="M158.183,254.688l-3.989,3.989c-3.623,3.623-4.726,7.946-3.371,13.217l0,.015,0,.015,4.887,18.451.613,2.313,2.312.615,18.741,4.984a14.039,14.039,0,0,0,3.67.511,12.742,12.742,0,0,0,9.19-4.071l3.989-3.989,4.8-4.8-6.473-2.044-20.717-6.543-6.826-21.021-2.077-6.4Zm126.076,1.641-6.826,21.021-20.717,6.543-6.473,2.044,4.8,4.8,3.989,3.989a12.742,12.742,0,0,0,9.19,4.071,14.039,14.039,0,0,0,3.67-.511l18.741-4.984,2.312-.615.613-2.313,4.887-18.451,0-.015,0-.015c1.355-5.27.252-9.594-3.371-13.217l-3.989-3.989-4.756-4.756Zm-45.584-70.82v45.465c0,6.905-1.2,11.892-3.558,14.822-2.762,3.428-7.064,3.825-10.06,3.825a12.653,12.653,0,0,1-10.212-4.475c-2.777-3.323-4.244-8.417-4.244-14.73V199.547c0-4.3-1.111-7.719-3.3-10.168-1.579-1.765-4.531-3.87-9.618-3.87h-8.032v45.6c0,11.664,3.258,21.45,9.42,28.3s14.854,10.461,25.15,10.461a42.522,42.522,0,0,0,14.743-2.41,29.554,29.554,0,0,0,11.387-7.42c6.157-6.52,9.278-15.878,9.278-27.814V199.547c0-4.405-1.15-7.867-3.417-10.289-2.329-2.488-5.667-3.749-9.923-3.749Zm-61.508-35.778-.015,0-.015,0-18.451,4.887-2.313.612-.615,2.312-4.984,18.738a12.869,12.869,0,0,0-.1,6.813,13.618,13.618,0,0,0,3.657,6.05l3.989,3.989,4.8,4.8,2.044-6.473,6.543-20.717,21.021-6.826,6.4-2.077-4.756-4.756-3.989-3.989a12.558,12.558,0,0,0-9.113-3.929,16.363,16.363,0,0,0-4.1.558m81.726,3.371-3.989,3.989-4.756,4.756,6.4,2.077,21.021,6.826,6.543,20.717,2.044,6.473,4.8-4.8,3.989-3.989a13.618,13.618,0,0,0,3.657-6.05,12.867,12.867,0,0,0-.1-6.813l-4.984-18.738-.615-2.312-2.313-.612-18.451-4.887-.015,0-.015,0a16.363,16.363,0,0,0-4.1-.558,12.558,12.558,0,0,0-9.113,3.929" transform="translate(-7372.302 -19001.436)" fill="url(#linear-gradient)"/>
  </g>
</svg>
