<svg width="375" height="375" viewBox="0 0 375 375" fill="none" xmlns="http://www.w3.org/2000/svg">
<rect width="375" height="375" fill="#E0E4FF"/>
<path d="M93.8544 111.784C88.6456 117.144 85.6498 124.247 85.4579 131.692C85.2589 146.107 96.0705 153.517 107.733 161.511C121.293 170.805 136.003 180.888 135.891 203.687C135.669 230.127 112.082 257.128 78.9648 258.849C50.6187 260.327 32 243.469 32 217.896C32.2817 209.201 34.4415 200.667 38.3333 192.872L38.7268 192.091C40.0101 189.523 42.2535 187.555 44.9784 186.606C47.7033 185.657 50.6938 185.803 53.3119 187.013C54.3644 187.563 55.295 188.316 56.0488 189.23C56.8025 190.143 57.364 191.197 57.6999 192.33C58.0359 193.462 58.1396 194.65 58.0048 195.823C57.8699 196.996 57.4994 198.13 56.9151 199.158C56.8044 199.354 56.706 199.549 56.6076 199.744C53.9914 204.992 52.6081 210.76 52.5617 216.614C52.5617 231.653 64.4658 241.345 80.6987 240.503C99.5265 239.526 114.456 223.059 114.456 206.092C114.456 191.214 103.561 183.819 91.9426 175.933C78.5679 166.856 64.2355 157.128 64.4658 134.585C64.6872 111.587 85.6793 86.6486 115.759 85.0739C144.425 83.5847 160.953 104.8 155.296 129.909V130.007C154.643 132.721 153.125 135.154 150.966 136.942C148.808 138.73 146.126 139.779 143.318 139.931H141.867C140.731 139.993 139.596 139.79 138.554 139.337C137.511 138.884 136.591 138.195 135.866 137.325C135.141 136.454 134.632 135.427 134.38 134.326C134.128 133.224 134.14 132.08 134.415 130.984V130.898C138.449 111.88 127.122 102.029 113.595 102.737C106.107 103.196 99.0631 106.424 93.8544 111.784Z" fill="#121212"/>
<path fill-rule="evenodd" clip-rule="evenodd" d="M242.367 253.32L332.716 245.471L332.679 245.459C333.881 245.317 335.1 245.409 336.266 245.731C337.432 246.052 338.523 246.597 339.475 247.333C340.427 248.069 341.223 248.982 341.816 250.021C342.41 251.06 342.79 252.203 342.934 253.386C343.079 254.569 342.985 255.769 342.658 256.917C342.332 258.064 341.778 259.137 341.03 260.074C340.282 261.011 339.354 261.794 338.299 262.378C337.243 262.962 336.081 263.336 334.879 263.478C334.891 263.49 286.399 266.816 236.972 270.19C236.599 271.39 236.224 272.586 235.849 273.784C235.113 276.134 234.375 278.489 233.642 280.892C232.862 283.401 231.323 285.615 229.23 287.24C227.138 288.865 224.591 289.823 221.931 289.986C220.734 290.059 219.539 289.838 218.452 289.341C217.365 288.844 216.421 288.089 215.706 287.142C214.99 286.196 214.527 285.089 214.356 283.921C214.186 282.754 214.314 281.563 214.729 280.457C215.745 277.49 216.765 274.507 217.789 271.508L133.278 277.325C123.754 277.966 122.181 264.385 131.705 262.97L223.541 254.977C227.153 244.238 230.84 233.354 234.527 222.47C227.399 229.533 219.51 234.563 211.608 234.974C198.262 235.664 193.113 228.916 192.794 217.73C184.167 228.384 173.77 236.921 163.374 237.466C142.396 238.542 140.234 222.482 151.478 187.001C157.905 166.503 170.907 130.211 181.414 101.405L181.918 100.027C182.807 97.5765 184.406 95.4365 186.518 93.8718C188.63 92.307 191.163 91.386 193.801 91.2229C194.977 91.1581 196.151 91.3863 197.214 91.8864C198.277 92.3865 199.194 93.1422 199.882 94.0838C200.569 95.0254 201.004 96.1223 201.146 97.2731C201.288 98.4239 201.133 99.5914 200.695 100.668L200.585 100.946C187.989 134.783 175.282 171.05 169.432 188.621C161.432 213.086 160.781 220.136 168.351 219.749C180.787 219.108 192.154 203.29 200.941 179.551C203.141 172.961 205.623 166.104 208.179 159.15L208.72 157.699C209.623 155.253 211.232 153.12 213.35 151.56C215.467 150.001 218.001 149.083 220.64 148.919C221.791 148.857 222.94 149.082 223.979 149.573C225.018 150.063 225.914 150.805 226.585 151.727C227.255 152.65 227.678 153.724 227.814 154.851C227.95 155.977 227.795 157.119 227.362 158.171C227.29 158.36 227.219 158.549 227.149 158.737C227.053 158.994 226.958 159.25 226.859 159.501C214.852 191.294 204.874 217.826 216.548 217.234C228.223 216.641 241.212 200.811 249.814 177.012L252.251 169.815L252.255 169.805C253.86 165.064 255.452 160.361 257.028 155.716C257.903 153.138 259.54 150.876 261.73 149.219C263.919 147.563 266.561 146.587 269.317 146.416C270.339 146.356 271.359 146.553 272.282 146.989C273.204 147.424 273.999 148.084 274.59 148.906C275.182 149.728 275.551 150.684 275.663 151.685C275.774 152.686 275.625 153.699 275.228 154.627L271.259 164.834C277.096 154.313 288.77 143.502 301.748 142.824C313.865 142.208 322.086 151.568 322.086 167.954C322.086 192.648 304.992 230.343 275.584 231.854C266.503 232.326 259.584 230.186 252.014 224.139C249.163 232.169 245.857 242.315 242.367 253.32ZM302.559 171.727C302.559 164.084 299.093 158.92 292.826 159.247C282.921 159.61 269.034 173.88 256.278 209.881C259.523 214.186 265.139 216.871 272.93 216.472C290.872 215.529 302.559 190.46 302.559 171.727Z" fill="#121212"/>
<path d="M228.247 134.682C235.969 134.299 243.472 126.23 243.472 118.508C243.527 117.321 243.305 116.136 242.821 115.035C242.337 113.933 241.603 112.94 240.668 112.123C239.733 111.306 238.618 110.684 237.4 110.298C236.182 109.912 234.888 109.772 233.606 109.888C225.884 110.259 218.6 117.935 218.6 126.05C218.637 131.388 222.278 134.962 228.247 134.682Z" fill="#121212"/>
<path d="M342.996 215.363C342.996 223.174 335.49 230.985 327.761 230.985C321.754 230.985 318.12 227.126 318.12 221.763C318.12 213.556 325.375 206.141 333.105 206.141C334.414 206.102 335.718 206.314 336.936 206.764C338.154 207.213 339.26 207.891 340.187 208.755C341.113 209.619 341.841 210.651 342.324 211.787C342.807 212.924 343.035 214.141 342.996 215.363Z" fill="#121212"/>
</svg>
